<?xml version="1.0" encoding="UTF-8"?>
<svg width="20px" height="20px" viewBox="0 0 20 20" version="1.1" xmlns="http://www.w3.org/2000/svg" xmlns:xlink="http://www.w3.org/1999/xlink">
    <!-- Generator: Sketch 64 (93537) - https://sketch.com -->
    <title>关闭light</title>
    <desc>Created with Sketch.</desc>
    <defs>
        <path d="M11.0021118,3.5 C11.2794206,3.5 11.5042237,3.72480313 11.5042237,4.00211185 L11.504,10.519 L18.0196888,10.5196888 C18.2849574,10.5196888 18.5,10.7347315 18.5,11 C18.5,11.2652685 18.2849574,11.4803112 18.0196888,11.4803112 L11.504,11.48 L11.5042237,17.9978882 C11.5042237,18.2751969 11.2794206,18.5 11.0021118,18.5 C10.7248031,18.5 10.5,18.2751969 10.5,17.9978882 L10.499,11.48 L3.98031115,11.4803112 C3.71504263,11.4803112 3.5,11.2652685 3.5,11 C3.5,10.7347315 3.71504263,10.5196888 3.98031115,10.5196888 L10.499,10.519 L10.5,4.00211185 C10.5,3.72480313 10.7248031,3.5 11.0021118,3.5 Z" id="path-1"></path>
    </defs>
    <g id="关闭light" stroke="none" stroke-width="1" fill="none" fill-rule="evenodd">
        <g id="icon/20px/线性/与会者列表/关闭备份-3" transform="translate(-1.000000, -1.000000)">
            <mask id="mask-2" fill="white">
                <use xlink:href="#path-1"></use>
            </mask>
            <use id="Mask" fill="#FAFBFF" fill-rule="nonzero" transform="translate(11.000000, 11.000000) rotate(-225.000000) translate(-11.000000, -11.000000) " xlink:href="#path-1"></use>
        </g>
    </g>
</svg>